<?xml version="1.0" encoding="UTF-8" standalone="no"?><!DOCTYPE svg PUBLIC "-//W3C//DTD SVG 1.1//EN" "http://www.w3.org/Graphics/SVG/1.1/DTD/svg11.dtd"><svg width="100%" height="100%" viewBox="0 0 349 68" version="1.1" xmlns="http://www.w3.org/2000/svg" xmlns:xlink="http://www.w3.org/1999/xlink" xml:space="preserve" xmlns:serif="http://www.serif.com/" style="fill-rule:evenodd;clip-rule:evenodd;stroke-linejoin:round;stroke-miterlimit:2;"><clipPath id="_clip1"><rect id="Mintello3-logo" x="0.936" y="0.241" width="347.135" height="67.671"/></clipPath><g clip-path="url(#_clip1)"><rect id="Logo" x="0.936" y="0.241" width="347.135" height="67.671" style="fill:none;"/><g><path d="M77.185,9.03l16.761,-0c4.513,-0 7.886,0.913 10.121,2.739c2.235,1.827 3.352,4.739 3.352,8.735c0,2.622 -0.419,4.685 -1.257,6.189c-0.838,1.504 -2.16,2.75 -3.965,3.739c4.212,1.633 6.318,5.05 6.318,10.25c0,8.337 -4.684,12.506 -14.053,12.506l-17.277,-0l0,-44.158Zm16.761,24.883l-9.605,0l-0,13.086l9.734,0c2.364,0 4.136,-0.494 5.318,-1.482c1.182,-0.989 1.773,-2.686 1.773,-5.093c0,-2.407 -0.688,-4.094 -2.063,-5.061c-1.375,-0.966 -3.094,-1.45 -5.157,-1.45Zm-0.387,-18.695l-9.218,0l-0,12.635l9.476,0c4.212,0 6.318,-2.17 6.318,-6.511c-0,-4.082 -2.192,-6.124 -6.576,-6.124Z" style="fill:#00c8cb;fill-rule:nonzero;"/><rect x="116.638" y="9.03" width="7.156" height="44.158" style="fill:#00c8cb;fill-rule:nonzero;"/><path d="M133.979,53.188l-0,-44.158l12.441,-0l9.863,34.488l9.863,-34.488l12.507,-0l-0,44.158l-7.22,-0l-0,-36.229l-0.967,-0l-10.444,34.424l-7.478,-0l-10.443,-34.424l-0.967,-0l0,36.229l-7.155,-0Z" style="fill:#00c8cb;fill-rule:nonzero;"/><path d="M211.787,30.883l0,14.698c0.043,0.946 0.291,1.644 0.742,2.095c0.451,0.451 1.149,0.742 2.095,0.871l-0.194,5.35c-3.696,0 -6.553,-0.795 -8.573,-2.385c-3.438,1.59 -6.898,2.385 -10.379,2.385c-6.404,0 -9.605,-3.417 -9.605,-10.25c-0,-3.266 0.87,-5.63 2.61,-7.091c1.741,-1.461 4.416,-2.342 8.026,-2.643l8.316,-0.709l0,-2.321c0,-1.719 -0.376,-2.922 -1.128,-3.61c-0.752,-0.687 -1.859,-1.031 -3.32,-1.031c-2.75,-0 -6.188,0.172 -10.314,0.515l-2.063,0.129l-0.258,-4.963c4.685,-1.118 8.993,-1.676 12.925,-1.676c3.933,-0 6.769,0.848 8.51,2.546c1.74,1.697 2.61,4.394 2.61,8.09Zm-14.44,7.994c-2.965,0.258 -4.448,1.869 -4.448,4.835c0,2.965 1.311,4.448 3.933,4.448c2.148,-0 4.426,-0.344 6.833,-1.032l1.16,-0.387l0,-8.573l-7.478,0.709Z" style="fill:#00c8cb;fill-rule:nonzero;"/><path d="M220.619,67.048l0,-46.092l6.962,-0l0,1.998c2.966,-1.805 5.738,-2.707 8.316,-2.707c4.255,-0 7.371,1.3 9.348,3.9c1.976,2.6 2.965,6.962 2.965,13.086c-0,6.124 -1.128,10.432 -3.384,12.925c-2.257,2.493 -5.942,3.739 -11.056,3.739c-1.762,0 -3.804,-0.193 -6.124,-0.58l-0,13.731l-7.027,-0Zm14.053,-40.548c-2.02,-0 -4.039,0.451 -6.059,1.353l-0.967,0.452l-0,19.017c1.719,0.343 3.61,0.515 5.673,0.515c2.922,0 4.942,-0.838 6.059,-2.514c1.118,-1.676 1.676,-4.534 1.676,-8.574c0,-6.833 -2.127,-10.249 -6.382,-10.249Z" style="fill:#00c8cb;fill-rule:nonzero;"/><path d="M277.606,27.595c-5.071,-0.687 -8.746,-1.031 -11.024,-1.031c-2.277,0 -3.857,0.269 -4.738,0.806c-0.881,0.537 -1.321,1.386 -1.321,2.546c-0,1.161 0.483,1.977 1.45,2.45c0.967,0.473 3.245,1.021 6.833,1.644c3.589,0.623 6.135,1.601 7.639,2.933c1.505,1.332 2.257,3.696 2.257,7.091c-0,3.395 -1.085,5.888 -3.256,7.478c-2.17,1.59 -5.34,2.385 -9.508,2.385c-2.622,0 -5.931,-0.365 -9.928,-1.096l-1.998,-0.322l0.258,-5.866c5.157,0.687 8.874,1.031 11.152,1.031c2.278,0 3.9,-0.279 4.867,-0.838c0.967,-0.559 1.451,-1.483 1.451,-2.772c-0,-1.289 -0.462,-2.181 -1.386,-2.675c-0.924,-0.495 -3.138,-1.032 -6.64,-1.612c-3.503,-0.58 -6.071,-1.493 -7.704,-2.74c-1.633,-1.246 -2.449,-3.524 -2.449,-6.833c-0,-3.309 1.128,-5.78 3.384,-7.413c2.256,-1.633 5.146,-2.45 8.67,-2.45c2.751,-0 6.125,0.344 10.121,1.031l1.999,0.387l-0.129,5.866Z" style="fill:#00c8cb;fill-rule:nonzero;"/><rect x="285.148" y="43.905" width="7.542" height="9.283" style="fill:#00c8cb;fill-rule:nonzero;"/><path d="M300.878,53.188l-0,-32.232l7.026,-0l0,32.232l-7.026,-0Zm-0,-37.712l-0,-7.413l7.026,-0l0,7.413l-7.026,0Z" style="fill:#00c8cb;fill-rule:nonzero;"/><path d="M318.186,24.437c2.214,-2.794 5.899,-4.19 11.056,-4.19c5.157,-0 8.842,1.396 11.056,4.19c2.213,2.793 3.32,6.983 3.32,12.57c-0,5.587 -1.075,9.799 -3.224,12.635c-2.148,2.837 -5.866,4.255 -11.152,4.255c-5.286,0 -9.004,-1.418 -11.152,-4.255c-2.149,-2.836 -3.224,-7.048 -3.224,-12.635c0,-5.587 1.107,-9.777 3.32,-12.57Zm5.254,20.951c0.989,1.719 2.923,2.578 5.802,2.578c2.879,0 4.813,-0.859 5.802,-2.578c0.988,-1.719 1.483,-4.534 1.483,-8.445c-0,-3.911 -0.527,-6.683 -1.58,-8.316c-1.053,-1.633 -2.954,-2.45 -5.705,-2.45c-2.75,0 -4.652,0.817 -5.705,2.45c-1.053,1.633 -1.579,4.405 -1.579,8.316c-0,3.911 0.494,6.726 1.482,8.445Z" style="fill:#00c8cb;fill-rule:nonzero;"/></g><g><path d="M56.774,48.548l-25.04,14.735l-25.041,-14.735l0,-29.278l25.041,-14.735l25.04,14.735l-0,29.278Z" style="fill:#00fbff;fill-rule:nonzero;"/><path d="M6.693,48.355l0,-29.085l25.426,-14.832" style="fill:#cff;fill-rule:nonzero;"/><path d="M56.774,19.463l-0,29.085l-25.426,14.831" style="fill:#00aaac;fill-rule:nonzero;"/><path d="M31.734,64.246c-0.193,-0 -0.289,-0 -0.482,-0.096l-25.233,-14.736c-0.289,-0.192 -0.289,-0.481 -0.289,-0.866l0,-29.278c0,-0.385 0,-0.674 0.289,-0.867l25.329,-14.639c0.289,-0.192 0.578,-0.192 0.963,0l25.233,14.639c0.289,0.193 0.289,0.482 0.289,0.867l0,29.374c0,0.385 0,0.674 -0.289,0.867l-25.425,14.542c-0.097,0.097 -0.193,0.193 -0.385,0.193Zm-24.078,-16.18l24.078,14.158l24.077,-14.158l-0,-28.315l-24.077,-14.061l-24.078,14.061l0,28.315Z" style="fill:#007577;fill-rule:nonzero;"/><path d="M31.734,34.776c-0.193,-0 -0.289,-0 -0.482,-0.097l-24.559,-14.157c-0.481,-0.289 -0.77,-1.059 -0.481,-1.541c0.289,-0.482 0.77,-0.482 1.252,-0.289l24.27,14.061l24.462,-14.157c0.481,-0.289 0.963,-0 1.156,0.385c0.289,0.482 -0.097,1.156 -0.578,1.445l-24.559,14.253c-0.193,0.097 -0.289,0.097 -0.481,0.097Z" style="fill:#007577;fill-rule:nonzero;"/><path d="M31.734,63.476c-0.578,-0 -0.964,-0.386 -0.964,-0.964l0,-28.796c0,-0.578 0.386,-0.963 0.964,-0.963c0.577,0 0.963,0.385 0.963,0.963l-0,28.796c-0,0.482 -0.386,0.964 -0.963,0.964Z" style="fill:#007577;fill-rule:nonzero;"/></g></g></svg>